<?xml version="1.0" encoding="UTF-8"?>
<svg width="118px" height="31px" viewBox="0 0 118 31" version="1.1" xmlns="http://www.w3.org/2000/svg" xmlns:xlink="http://www.w3.org/1999/xlink">
    <!-- Generator: Sketch 59.1 (86144) - https://sketch.com -->
    <title>Group</title>
    <desc>Created with Sketch.</desc>
    <g id="Visual-Studio-Code" stroke="none" stroke-width="1" fill="none" fill-rule="evenodd">
        <g id="Group">
            <rect id="Rectangle" fill="#0F7C10" x="0" y="0" width="118" height="31"></rect>
            <path d="M42.6181641,20 L41.2851562,20 L41.2851562,9.97851562 L42.6181641,9.97851562 L42.6181641,20 Z M50.7529297,20 L49.515625,20 L49.515625,15.5908203 C49.515625,14.8479781 49.3823256,14.3375665 49.1157227,14.0595703 C48.8491198,13.7815741 48.4788435,13.6425781 48.0048828,13.6425781 C47.6402977,13.6425781 47.2950863,13.7314444 46.9692383,13.9091797 C46.6433903,14.086915 46.4121101,14.3375635 46.2753906,14.6611328 C46.1386712,14.9847021 46.0703125,15.4427054 46.0703125,16.0351562 L46.0703125,20 L44.8398438,20 L44.8398438,12.7470703 L45.9472656,12.7470703 L45.9472656,13.7724609 L45.9746094,13.7724609 C46.2343763,13.3759746 46.5545228,13.0786143 46.9350586,12.8803711 C47.3155944,12.6821279 47.7565079,12.5830078 48.2578125,12.5830078 C48.6406269,12.5830078 49.0188783,12.6513665 49.3925781,12.7880859 C49.7662779,12.9248054 50.059081,13.1298814 50.2709961,13.4033203 C50.4829112,13.6767592 50.6162107,13.9684229 50.6708984,14.2783203 C50.7255862,14.5882177 50.7529297,15.0074843 50.7529297,15.5361328 L50.7529297,20 Z M56.6591797,14.7773438 C56.6044919,14.3808574 56.443849,14.0834971 56.1772461,13.8852539 C55.9106432,13.6870107 55.540367,13.5878906 55.0664062,13.5878906 C54.5970029,13.5878906 54.2176121,13.6676424 53.9282227,13.8271484 C53.6388332,13.9866544 53.4941406,14.219074 53.4941406,14.5244141 C53.4941406,14.8115249 53.6092111,15.0166009 53.8393555,15.1396484 C54.0439283,15.249024 54.4258371,15.3800028 54.9850915,15.532588 L55.7412428,15.7335208 C56.2432571,15.8719485 56.6369615,15.997558 56.9223633,16.1103516 C57.302899,16.2607429 57.59912,16.4715156 57.8110352,16.7426758 C58.0229503,17.013836 58.1289062,17.3909481 58.1289062,17.8740234 C58.1289062,18.5211621 57.864586,19.065753 57.3359375,19.5078125 C56.807289,19.949872 56.1009159,20.1708984 55.2167969,20.1708984 C54.2962194,20.1708984 53.5773138,19.9760762 53.0600586,19.5864258 C52.5428034,19.1967754 52.2249355,18.6123086 52.1064453,17.8330078 L53.3300781,17.6484375 C53.3938805,18.1542994 53.5818669,18.5325508 53.894043,18.7832031 C54.206219,19.0338554 54.6425753,19.1591797 55.203125,19.1591797 C55.7408881,19.1591797 56.1533189,19.0463878 56.4404297,18.8208008 C56.7275405,18.5952137 56.8710938,18.3206396 56.8710938,17.9970703 C56.8710938,17.7783192 56.8050137,17.6028652 56.6728516,17.4707031 C56.5406894,17.338541 56.3754893,17.2394209 56.1772461,17.1733398 L56.0286328,17.127539 C55.9394923,17.1015625 55.8281012,17.0709718 55.6944589,17.0357668 L54.8408203,16.8212891 C53.8108672,16.5751941 53.1306983,16.2766945 52.800293,15.9257812 C52.4698877,15.574868 52.3046875,15.1556014 52.3046875,14.6679688 C52.3046875,14.0618459 52.5462215,13.5628275 53.0292969,13.1708984 C53.5123722,12.7789694 54.1617798,12.5830078 54.9775391,12.5830078 C55.8434288,12.5830078 56.5167619,12.7527652 56.9975586,13.0922852 C57.4783553,13.4318051 57.7666011,13.9387987 57.8623047,14.6132812 L56.6591797,14.7773438 Z M62.4423828,19.9863281 C62.0777977,20.0592452 61.7701835,20.0957031 61.5195312,20.0957031 C60.9817681,20.0957031 60.589845,20.0011403 60.34375,19.8120117 C60.097655,19.6228832 59.9472659,19.3824884 59.8925781,19.0908203 C59.8378904,18.7991522 59.8105469,18.3935573 59.8105469,17.8740234 L59.8105469,13.6972656 L58.9150391,13.6972656 L58.9150391,12.7470703 L59.8105469,12.7470703 L59.8105469,10.9423828 L61.0410156,10.1972656 L61.0410156,12.7470703 L62.2714844,12.7470703 L62.2714844,13.6972656 L61.0410156,13.6972656 L61.0410156,17.9423828 C61.0410156,18.306968 61.0786129,18.5655917 61.1538086,18.7182617 C61.2290043,18.8709318 61.4192693,18.9472656 61.7246094,18.9472656 C61.9023446,18.9472656 62.0846345,18.9290366 62.2714844,18.8925781 L62.4423828,19.9863281 Z M69.7910156,20 L68.4990234,20 C68.3805333,19.7721343 68.2962242,19.4736347 68.2460938,19.1044922 C67.4212198,19.8154332 66.5302782,20.1708984 65.5732422,20.1708984 C64.8076134,20.1708984 64.2037783,19.9794941 63.7617188,19.5966797 C63.3196592,19.2138653 63.0986328,18.708011 63.0986328,18.0791016 C63.0986328,17.4775361 63.3116841,16.9819355 63.737793,16.5922852 C64.1639019,16.2026348 64.903315,15.9440111 65.9560547,15.8164062 L67.1044922,15.6455078 C67.5328797,15.5771481 67.8860663,15.492839 68.1640625,15.3925781 L68.1602648,15.0595154 C68.1552012,14.8615266 68.1450739,14.7116433 68.1298828,14.6098633 C68.1070962,14.4571932 68.0398769,14.2988289 67.9282227,14.1347656 C67.8165685,13.9707023 67.6376965,13.8385422 67.3916016,13.7382812 C67.1455066,13.6380203 66.8151062,13.5878906 66.4003906,13.5878906 C65.8717421,13.5878906 65.4536148,13.6858714 65.1459961,13.8818359 C64.8383774,14.0778005 64.6276047,14.4423801 64.5136719,14.9755859 L63.3105469,14.8183594 C63.442709,14.0755171 63.7822238,13.5172545 64.3291016,13.1435547 C64.8759793,12.7698549 65.6279249,12.5830078 66.5849609,12.5830078 C67.455408,12.5830078 68.0945618,12.71175 68.5024414,12.9692383 C68.910321,13.2267265 69.1609696,13.5377586 69.2543945,13.9023438 C69.3478195,14.2669289 69.3945312,14.7363253 69.3945312,15.3105469 L69.3945312,16.9648438 C69.3945312,17.9720102 69.4138995,18.647622 69.4526367,18.9916992 C69.4913739,19.3357765 69.6041657,19.6718734 69.7910156,20 Z M68.1640625,16.8076172 L68.1640625,16.3632812 C67.5214812,16.577475 66.7353562,16.7472324 65.8056641,16.8725586 C64.8759719,16.9978847 64.4111328,17.3909472 64.4111328,18.0517578 C64.4111328,18.3844418 64.5364571,18.6590158 64.7871094,18.8754883 C65.0377617,19.0919607 65.3977841,19.2001953 65.8671875,19.2001953 C66.4733103,19.2001953 67.0076474,19.0190448 67.4702148,18.6567383 C67.9327823,18.2944318 68.1640625,17.6780642 68.1640625,16.8076172 Z M72.5185547,20 L71.2880859,20 L71.2880859,9.97851562 L72.5185547,9.97851562 L72.5185547,20 Z M75.6289062,20 L74.3984375,20 L74.3984375,9.97851562 L75.6289062,9.97851562 L75.6289062,20 Z" id="Install" fill="#FFFFFF" fill-rule="nonzero"></path>
        </g>
    </g>
</svg>