<?xml version="1.0" encoding="UTF-8"?>
<svg width="128px" height="128px" viewBox="0 0 128 128" version="1.1" xmlns="http://www.w3.org/2000/svg" xmlns:xlink="http://www.w3.org/1999/xlink">
    <!-- Generator: Sketch 59.1 (86144) - https://sketch.com -->
    <title>original</title>
    <desc>Created with Sketch.</desc>
    <g id="visual-studio-code" stroke="none" stroke-width="1" fill="none" fill-rule="evenodd">
        <g id="original" fill="#EAD14E">
            <path d="M128,0 L128,128 L0,128 L0,0 L128,0 Z M59.5065625,83.68375 L37.0871875,83.68375 L37.0871875,113.92 L60.0840625,113.92 L60.0840625,108.825625 L43.1921875,108.825625 L43.1921875,100.59625 L58.3721875,100.59625 L58.3721875,95.501875 L43.1921875,95.501875 L43.1921875,88.79875 L59.5065625,88.79875 L59.5065625,83.68375 Z M69.9828125,83.68375 L64.0428125,83.68375 L64.0428125,113.92 L69.7146875,113.92 L69.7146875,94.2025 L81.9040625,113.92 L88.0296875,113.92 L88.0296875,83.68375 L82.3578125,83.68375 L82.3578125,103.875625 L69.9828125,83.68375 Z M96.7321875,83.68375 L90.1115625,83.68375 L100.919063,113.92 L107.436563,113.92 L118.264688,83.68375 L111.788438,83.68375 L104.384063,106.061875 L96.7321875,83.68375 Z M28.8,104.96 L19.84,104.96 L19.84,113.92 L28.8,113.92 L28.8,104.96 Z" id="Combined-Shape"></path>
        </g>
    </g>
</svg>